<?xml version="1.0" standalone="no"?>
<!DOCTYPE svg PUBLIC "-//W3C//DTD SVG 20010904//EN"
 "http://www.w3.org/TR/2001/REC-SVG-20010904/DTD/svg10.dtd">
<svg version="1.0" xmlns="http://www.w3.org/2000/svg"
 width="100.000000pt" height="100.000000pt" viewBox="0 0 100.000000 100.000000"
 preserveAspectRatio="xMidYMid meet">

<g transform="translate(0.000000,100.000000) scale(0.100000,-0.100000)"
fill="#000000" stroke="none">
<path d="M178 984 c-14 -14 -22 -15 -49 -5 -38 13 -96 15 -103 2 -3 -4 6 -6
19 -3 27 5 85 -15 85 -29 0 -19 2 -25 15 -39 7 -8 16 -26 20 -40 4 -14 22 -39
40 -57 32 -31 33 -34 22 -69 l-11 -37 -8 30 c-4 17 -16 33 -25 37 -10 3 -24 9
-32 12 -9 4 -6 -5 7 -21 12 -15 22 -33 22 -39 0 -6 -5 -4 -11 4 -13 18 -10 4
14 -72 8 -27 11 -46 7 -43 -4 3 -10 -8 -12 -25 -4 -23 1 -33 25 -51 17 -12 27
-17 23 -10 -14 22 6 10 31 -19 13 -16 35 -30 46 -31 22 0 22 0 2 -9 -12 -4
-27 -15 -34 -24 -7 -9 -18 -13 -25 -9 -24 16 -36 10 -46 -23 -13 -38 -89 -90
-116 -80 -25 10 4 39 33 33 13 -2 23 0 23 4 0 8 -21 13 -41 11 -3 -1 -6 6 -6
14 0 10 4 11 11 4 5 -5 19 -9 31 -9 17 1 17 2 2 6 -9 2 -15 9 -12 14 3 5 -2 6
-12 3 -16 -5 -16 -4 1 10 11 9 15 16 9 16 -6 0 -25 -17 -42 -37 -25 -32 -32
-35 -41 -23 -15 23 -12 -4 5 -36 22 -43 19 -64 -9 -64 -14 0 -28 -5 -32 -12
-4 -7 -3 -8 4 -4 8 5 12 -2 12 -18 0 -14 4 -26 9 -26 5 0 7 9 4 20 -3 11 -1
20 5 20 16 0 11 -82 -6 -102 -8 -9 -11 -22 -7 -28 6 -9 10 -9 16 1 6 10 9 7
10 -11 l1 -25 8 25 c4 14 8 19 9 11 1 -11 5 -10 16 5 14 19 14 19 15 -3 0 -12
-5 -25 -10 -28 -6 -3 -10 -19 -10 -35 0 -22 8 -33 36 -49 43 -25 56 -27 29 -3
-20 18 -45 56 -45 69 0 4 15 -7 32 -24 33 -30 69 -53 85 -53 4 0 -1 7 -11 15
-30 23 3 19 42 -5 36 -22 67 -27 39 -6 -27 21 -20 27 21 20 28 -5 34 -4 26 5
-6 7 -33 13 -60 15 -63 4 -57 3 -83 25 -19 17 -20 20 -5 32 11 9 14 22 10 41
-5 27 -4 28 22 22 15 -4 32 -11 39 -16 17 -14 4 -38 -21 -38 -17 0 -14 -4 12
-17 29 -14 35 -14 43 -2 6 10 11 11 17 3 4 -6 24 -14 44 -18 31 -6 39 -12 47
-39 7 -25 9 -27 10 -9 1 22 1 22 28 5 26 -17 27 -17 20 0 -8 20 12 23 32 4 11
-10 13 -9 8 5 -3 9 -1 19 6 21 7 3 4 8 -8 12 -36 12 -50 22 -50 36 0 8 -8 13
-19 11 -11 -2 -15 1 -11 7 3 6 17 11 31 11 14 0 23 4 19 9 -3 6 -21 5 -44 -4
-42 -15 -118 -14 -129 1 -4 5 -24 20 -44 34 -21 14 -38 31 -38 38 0 6 -4 12
-10 12 -5 0 -10 7 -10 15 0 8 9 15 20 15 11 0 20 -4 20 -9 0 -5 14 -14 30 -20
17 -6 39 -25 51 -46 22 -37 39 -43 20 -7 -15 27 -14 39 1 24 7 -7 23 -12 38
-11 l25 1 -25 7 c-35 11 -88 39 -95 51 -4 7 3 7 20 0 15 -6 30 -8 35 -5 4 3
13 -2 20 -10 7 -8 17 -15 22 -15 6 0 5 7 -2 15 -10 12 -10 15 1 16 8 0 3 5
-10 10 -20 8 -22 11 -10 27 13 15 12 16 -3 3 -10 -7 -16 -17 -13 -21 2 -4 -6
-5 -20 -3 -14 3 -28 17 -36 35 -12 29 -11 32 17 54 39 32 48 30 29 -6 -8 -16
-15 -33 -15 -37 1 -4 9 7 18 25 10 18 40 50 67 72 28 22 57 46 65 53 15 14 44
28 68 33 15 3 16 -22 2 -31 -6 -4 -8 -16 -5 -27 4 -12 0 -27 -11 -39 -9 -10
-14 -22 -10 -26 4 -4 11 -1 16 7 7 11 10 3 10 -26 0 -25 -6 -47 -15 -54 -8 -7
-15 -20 -14 -29 0 -13 1 -14 6 -1 3 8 14 25 25 37 11 12 17 26 14 31 -8 13 35
24 49 12 15 -12 17 -60 4 -76 -17 -21 -29 -17 -29 10 0 14 -5 28 -11 31 -7 5
-8 -4 -4 -27 6 -34 5 -35 -42 -57 -42 -19 -36 -25 8 -7 10 5 16 2 16 -8 0 -8
-6 -12 -12 -10 -7 3 -17 -2 -24 -10 -11 -13 -8 -13 25 -5 20 6 45 9 55 6 22
-6 59 19 59 39 0 8 5 14 11 14 7 0 9 -11 6 -26 -2 -14 -1 -22 3 -17 5 4 10 19
12 32 1 14 9 26 16 29 9 3 11 -3 6 -25 -6 -24 -27 -46 -44 -48 -3 0 -12 -5
-20 -10 -8 -5 -40 -15 -70 -21 -30 -7 -44 -13 -31 -13 20 -1 22 -3 11 -16 -7
-9 -19 -14 -27 -11 -7 3 -13 1 -13 -4 0 -17 22 -11 55 14 20 15 36 21 45 16 9
-6 5 -12 -18 -24 -20 -10 -29 -21 -26 -30 3 -8 -2 -29 -11 -46 -9 -18 -12 -29
-6 -26 6 4 11 1 12 -6 0 -7 4 -3 9 9 6 15 15 21 25 17 8 -3 15 -9 15 -13 0 -4
7 -8 15 -8 8 0 15 4 15 9 0 4 -5 8 -10 8 -13 0 -51 61 -44 71 7 12 34 -1 34
-16 0 -6 8 -19 18 -28 15 -13 19 -14 36 -1 23 17 56 19 56 3 0 -6 -11 -20 -26
-31 -41 -33 -20 -32 26 1 43 31 75 32 65 1 -3 -11 0 -17 10 -17 8 0 15 5 15
10 0 6 11 0 24 -12 l24 -22 6 25 c6 25 7 25 47 11 57 -21 71 -18 29 5 l-35 20
45 -5 45 -5 -42 11 c-25 6 -51 21 -63 36 -22 29 -27 92 -8 111 9 9 5 19 -20
45 -40 41 -42 67 -6 67 15 0 33 8 41 18 8 9 12 11 8 5 -3 -7 -1 -13 4 -13 6 0
11 4 11 10 0 16 27 0 39 -23 7 -12 18 -33 26 -47 l15 -25 0 38 c0 21 -5 47
-10 57 -13 24 -71 36 -98 21 -16 -9 -23 -8 -29 2 -4 7 -25 23 -46 36 -44 27
-57 48 -57 91 0 37 27 100 47 107 7 3 20 0 28 -7 10 -8 15 -9 15 -2 0 6 -5 14
-11 17 -6 4 -8 13 -5 21 3 8 0 11 -8 8 -10 -4 -12 2 -9 20 4 18 12 26 27 26
20 1 20 2 4 14 -25 19 -22 37 12 69 22 21 35 27 51 22 15 -5 19 -4 14 5 -6 9
-3 9 13 1 11 -6 28 -11 37 -11 15 0 15 2 1 15 -8 8 -31 15 -52 15 l-38 0 29
30 c21 22 29 39 28 65 -1 26 3 35 15 36 13 0 13 2 -3 8 -19 8 -18 9 5 14 21 4
20 5 -5 4 -28 -2 -30 -5 -36 -47 -4 -29 -7 -35 -7 -17 -2 27 -42 83 -42 58 0
-8 -8 -10 -22 -6 -20 6 -19 2 10 -25 21 -20 32 -40 31 -58 0 -24 -1 -25 -9 -7
-6 17 -9 14 -15 -19 -4 -22 -13 -50 -20 -63 -11 -20 -14 -21 -25 -8 -7 8 -15
35 -18 60 -4 43 -3 45 29 60 27 11 30 14 12 15 -12 0 -27 8 -32 18 -9 15 -10
14 -11 -6 0 -13 -4 -21 -9 -17 -19 11 -23 -81 -7 -145 16 -61 16 -63 -5 -81
-42 -37 -49 -23 -19 36 12 22 14 31 5 21 -15 -19 -15 -19 -16 5 -1 13 0 32 1
43 1 10 -3 16 -8 12 -11 -7 -25 -63 -22 -90 1 -11 -3 -16 -9 -11 -6 3 -9 10
-7 14 3 4 1 13 -5 21 -7 12 -9 12 -9 -3 0 -10 -3 -16 -7 -14 -5 3 -14 -1 -21
-9 -9 -10 -9 -14 -1 -14 8 0 7 -5 -2 -17 -11 -14 -8 -13 9 2 20 16 25 17 32 5
14 -22 12 -35 -9 -54 -13 -12 -27 -15 -47 -10 l-29 7 30 13 c17 7 23 13 15 13
-8 1 -22 -3 -30 -8 -26 -17 -31 0 -10 35 11 20 15 32 9 28 -6 -3 -19 -24 -29
-47 -17 -38 -18 -39 -30 -17 -10 19 -8 26 17 52 15 17 42 36 58 44 17 7 24 13
18 14 -23 0 -14 18 15 28 21 8 23 11 7 11 -23 1 -51 56 -61 121 -7 42 -24 56
-24 19 0 -21 0 -21 -20 2 -14 18 -19 20 -20 8 0 -8 6 -21 13 -28 10 -10 8 -11
-8 -6 -13 5 -9 -2 12 -19 30 -25 62 -91 49 -103 -3 -4 -9 8 -12 25 -4 18 -10
29 -15 26 -4 -2 -4 -17 2 -31 11 -29 6 -53 -11 -53 -6 0 -8 6 -4 13 5 8 4 9
-4 2 -16 -16 -48 -77 -56 -110 l-8 -30 -14 27 c-12 23 -12 31 1 62 22 51 17
59 -5 9 -17 -38 -18 -46 -5 -77 8 -18 21 -36 30 -40 17 -6 38 -53 29 -67 -3
-5 -13 -5 -24 1 -13 7 -21 7 -25 0 -9 -15 -41 -12 -55 4 -14 18 -41 10 -33
-10 6 -17 -18 -19 -36 -1 -10 10 -16 7 -32 -13 l-21 -25 7 30 c4 17 8 39 10
50 3 23 34 85 42 85 3 0 16 -11 29 -26 14 -15 24 -19 24 -12 0 8 -6 20 -12 27
-11 10 -10 11 5 6 9 -4 17 -10 17 -14 0 -11 49 -66 50 -55 0 5 -8 19 -18 30
-10 10 -21 27 -25 37 -4 10 -17 17 -33 17 l-27 0 23 25 c13 14 35 25 49 26
l26 1 -25 8 c-14 4 -20 9 -15 9 6 1 21 10 35 21 l25 19 -25 -6 c-21 -5 -23 -4
-14 8 6 8 14 23 18 33 5 15 4 17 -7 8 -8 -7 -16 -10 -18 -8 -2 2 -15 -11 -29
-28 -21 -28 -22 -29 -2 -12 12 11 22 14 22 8 0 -18 -39 -54 -50 -47 -6 4 -10
0 -10 -8 0 -8 -7 -17 -15 -21 -8 -3 -15 -2 -15 3 0 14 36 41 44 34 4 -5 7 -1
6 7 -1 8 -2 32 -1 53 1 30 6 39 26 47 31 12 31 15 1 15 -13 0 -22 -4 -18 -9 3
-5 0 -6 -7 -1 -7 4 -11 16 -8 26 3 11 1 17 -4 13 -5 -3 -9 -14 -9 -26 0 -18
-2 -19 -17 -7 -15 12 -16 12 -9 -6 16 -40 18 -55 10 -82 -6 -24 -9 -18 -14 35
-12 106 -25 90 -25 -30 1 -91 -2 -114 -16 -127 -20 -19 -30 -78 -15 -86 6 -2
2 -3 -9 -2 -11 2 -19 9 -17 16 2 9 -4 12 -17 8 -14 -3 -25 3 -35 18 -14 21
-14 27 1 62 9 21 16 44 14 51 -1 8 3 20 10 28 6 7 9 24 5 37 -3 14 1 32 9 43
8 10 15 35 15 54 0 25 8 41 28 58 l27 24 -32 -22 c-24 -16 -33 -18 -33 -8 0 8
6 20 13 28 10 12 9 12 -5 1 -12 -9 -18 -10 -18 -3 0 6 -7 9 -15 6 -11 -5 -12
-11 -4 -26 6 -10 8 -24 6 -31 -2 -7 -12 7 -22 30 -22 55 -42 49 -23 -7 9 -26
28 -110 28 -123 0 -21 -20 16 -20 39 0 12 -9 32 -19 46 -16 20 -18 32 -11 61
9 43 9 42 -12 21z m559 -266 c-3 -7 -5 -2 -5 12 0 14 2 19 5 13 2 -7 2 -19 0
-25z m-540 -50 c-3 -8 -6 -5 -6 6 -1 11 2 17 5 13 3 -3 4 -12 1 -19z m586 -38
c-6 -24 -22 -37 -49 -42 -35 -5 -26 37 10 52 34 14 45 11 39 -10z m-104 -27
c3 -2 -6 -14 -18 -27 -13 -14 -21 -28 -18 -33 3 -5 -4 -20 -15 -33 -11 -14
-17 -19 -13 -12 3 7 -1 15 -10 18 -10 4 -13 13 -10 25 3 10 0 27 -6 38 -10 15
-10 22 -1 34 10 12 20 13 50 4 20 -6 39 -12 41 -14z m-456 -3 c3 -11 1 -18 -4
-14 -5 3 -9 12 -9 20 0 20 7 17 13 -6z m78 -71 c5 -11 7 -19 3 -19 -11 0 -44
32 -44 41 0 14 30 -2 41 -22z m429 23 c0 -5 -9 -17 -20 -27 -26 -23 -52 -6
-30 20 13 16 50 21 50 7z m11 -39 c-8 -14 -11 -15 -11 -3 -1 10 -4 9 -11 -5
l-9 -20 3 20 c2 11 9 19 15 18 7 -2 12 2 12 9 0 6 3 9 6 5 3 -3 1 -14 -5 -24z
m-4 -45 c-3 -8 -6 -5 -6 6 -1 11 2 17 5 13 3 -3 4 -12 1 -19z m-337 -4 c0 -9
-5 -14 -12 -12 -18 6 -21 28 -4 28 9 0 16 -7 16 -16z m-37 -28 c-5 -7 -9 -5
-11 6 -3 14 -10 11 -38 -17 -19 -20 -33 -39 -30 -44 3 -5 -1 -14 -9 -21 -18
-15 -19 -7 -4 34 14 37 68 77 86 63 7 -5 10 -14 6 -21z m272 14 c11 9 19 10
27 2 7 -7 4 -19 -11 -41 -13 -17 -26 -31 -30 -31 -4 0 -20 13 -35 29 -33 34
-28 56 9 39 19 -8 28 -8 40 2z m-405 -24 c0 -3 -4 -8 -10 -11 -5 -3 -10 -1
-10 4 0 6 5 11 10 11 6 0 10 -2 10 -4z m503 -25 c8 -17 13 -32 10 -35 -9 -9
-45 43 -38 54 9 15 12 13 28 -19z m-387 -3 c4 -7 3 -8 -5 -4 -6 4 -19 2 -27
-5 -12 -10 -13 -9 -8 5 7 19 30 21 40 4z m474 -8 c0 -5 7 -10 15 -10 19 0 20
-19 1 -26 -15 -6 -65 24 -66 39 0 4 11 7 25 7 14 0 25 -4 25 -10z m-572 -25
c-6 -14 -17 -25 -24 -25 -7 0 -16 -5 -20 -12 -4 -7 -3 -8 5 -4 16 11 44 -1 59
-24 10 -17 10 -20 -4 -20 -9 0 -18 9 -21 21 -4 14 -8 17 -13 8 -10 -15 -60 -3
-60 15 0 7 13 19 30 26 16 7 35 18 41 26 17 21 20 17 7 -11z m445 -5 c3 -11
11 -19 17 -18 22 5 22 -20 0 -32 -18 -9 -25 -8 -41 6 -22 20 -24 35 -7 52 17
17 25 15 31 -8z m-29 -72 c-3 -5 -12 -4 -20 3 -7 6 -11 15 -8 21 3 5 12 4 20
-3 7 -6 11 -15 8 -21z m-503 -30 c-4 -13 -6 -29 -4 -36 3 -8 -1 -10 -14 -5
-16 6 -16 5 -4 -11 13 -15 12 -20 -7 -39 -19 -18 -22 -19 -22 -5 0 10 -9 22
-20 28 -24 13 -26 36 -4 44 9 4 14 13 10 21 -8 22 55 61 66 41 5 -8 4 -25 -1
-38z m619 1 c0 -7 12 -22 27 -35 24 -21 25 -24 9 -30 -9 -4 -15 -13 -12 -20 6
-15 -15 -9 -51 14 -13 8 -32 11 -45 7 -16 -4 -19 -3 -9 3 7 5 15 27 18 48 6
54 19 68 44 43 10 -10 19 -24 19 -30z m43 22 c-2 -6 3 -11 11 -11 18 0 30 -30
16 -44 -7 -7 -18 -2 -35 18 -29 34 -32 55 -7 51 9 -1 16 -8 15 -14z m-253 -41
c-13 -23 -27 -26 -27 -5 0 8 4 12 8 9 4 -2 10 0 14 6 11 19 16 10 5 -10z m52
-12 c-7 -7 -12 -8 -12 -2 0 14 12 26 19 19 2 -3 -1 -11 -7 -17z m-447 -66 c-8
-8 -25 10 -19 20 4 6 9 5 15 -3 4 -7 6 -15 4 -17z m670 18 c-3 -5 -11 -10 -16
-10 -6 0 -7 5 -4 10 3 6 11 10 16 10 6 0 7 -4 4 -10z m-173 -27 l-5 -28 24 28
c24 28 24 28 47 9 40 -35 15 -81 -30 -53 -17 10 -23 9 -40 -5 -16 -16 -21 -16
-28 -4 -15 23 -12 38 12 60 12 11 23 20 23 20 1 0 0 -12 -3 -27z m-502 -35 c0
-12 -14 -10 -28 4 -19 19 -14 29 8 16 11 -7 20 -16 20 -20z m684 10 c9 -37 7
-43 -9 -22 -16 21 -19 44 -6 44 5 0 11 -10 15 -22z m-467 -5 c18 -3 37 -11 43
-18 15 -18 -38 -12 -77 9 -35 17 -46 33 -15 21 9 -4 32 -9 49 -12z m451 -19
c12 -20 22 -42 22 -50 0 -23 -26 -16 -40 11 -7 14 -16 25 -19 25 -3 0 -12 4
-20 9 -12 8 -12 12 -2 25 20 24 34 19 59 -20z m-385 -31 c-7 -2 -19 -2 -25 0
-7 3 -2 5 12 5 14 0 19 -2 13 -5z m-348 -23 c3 -5 1 -10 -4 -10 -6 0 -11 5
-11 10 0 6 2 10 4 10 3 0 8 -4 11 -10z"/>
<path d="M675 938 c-25 -83 -27 -90 -16 -101 8 -8 11 -6 11 9 0 11 6 26 13 33
10 11 9 12 -2 6 -13 -7 -11 5 6 53 3 6 2 12 -1 12 -4 0 -8 -6 -11 -12z"/>
<path d="M230 646 c0 -2 7 -7 16 -10 8 -3 12 -2 9 4 -6 10 -25 14 -25 6z"/>
<path d="M890 321 c0 -6 5 -13 10 -16 6 -4 8 -10 5 -15 -2 -4 0 -22 6 -39 8
-23 8 -35 -1 -46 -6 -8 -9 -19 -5 -25 4 -6 1 -18 -6 -26 -10 -12 -9 -13 5 -8
9 3 16 16 17 28 0 20 1 20 9 1 6 -15 8 -9 8 23 0 59 8 62 17 7 5 -38 3 -51
-12 -67 -18 -21 -18 -21 5 -9 14 8 22 8 22 1 0 -5 3 -10 8 -10 4 0 6 21 5 47
-1 27 -3 63 -4 81 -1 28 -4 32 -22 27 -16 -5 -18 -4 -8 3 7 6 10 15 6 22 -6 9
-9 9 -15 0 -6 -9 -11 -7 -19 9 -12 21 -31 29 -31 12z"/>
</g>
</svg>
